<svg xmlns="http://www.w3.org/2000/svg" width="512" height="512" viewBox="0 0 512 512">
  <defs>
    <linearGradient id="gradient" x1="0%" y1="0%" x2="100%" y2="100%">
      <stop offset="0%" stop-color="#2196f3" />
      <stop offset="100%" stop-color="#64b5f6" />
    </linearGradient>
  </defs>
  <rect width="512" height="512" rx="128" fill="url(#gradient)" />
  <g transform="translate(128, 128) scale(0.5)">
    <path d="M256 42.667c-117.82 0-213.333 95.514-213.333 213.333S138.18 469.333 256 469.333 469.333 373.82 469.333 256 373.82 42.667 256 42.667zM128 256c0-70.692 57.308-128 128-128 70.692 0 128 57.308 128 128 0 70.692-57.308 128-128 128-70.692 0-128-57.308-128-128z" fill="white"/>
    <path d="M256 170.667c-47.128 0-85.333 38.205-85.333 85.333S208.872 341.333 256 341.333 341.333 303.128 341.333 256 303.128 170.667 256 170.667z" fill="white"/>
  </g>
</svg>