<svg xmlns="http://www.w3.org/2000/svg" width="192" height="192" viewBox="0 0 192 192">
  <defs>
    <linearGradient id="gradient" x1="0%" y1="0%" x2="100%" y2="100%">
      <stop offset="0%" stop-color="#2196f3" />
      <stop offset="100%" stop-color="#64b5f6" />
    </linearGradient>
  </defs>
  <rect width="192" height="192" rx="48" fill="url(#gradient)" />
  <g transform="translate(48, 48) scale(0.5)">
    <path d="M96 16c-44.183 0-80 35.817-80 80s35.817 80 80 80 80-35.817 80-80-35.817-80-80-80zM48 96c0-26.51 21.49-48 48-48s48 21.49 48 48-21.49 48-48 48-48-21.49-48-48z" fill="white"/>
    <path d="M96 64c-17.673 0-32 14.327-32 32s14.327 32 32 32 32-14.327 32-32-14.327-32-32-32z" fill="white"/>
  </g>
</svg>